<mxfile host="Electron" modified="2024-01-18T17:36:41.050Z" agent="Mozilla/5.0 (X11; Linux x86_64) AppleWebKit/537.36 (KHTML, like Gecko) draw.io/22.1.16 Chrome/120.0.6099.109 Electron/28.1.0 Safari/537.36" etag="WDRYx4iaykTwDHfIzpnk" version="22.1.16" type="device">
  <diagram name="Page-1" id="BeeQXuH5mpLVNXQqc5U8">
    <mxGraphModel dx="574" dy="363" grid="1" gridSize="10" guides="1" tooltips="1" connect="1" arrows="1" fold="1" page="1" pageScale="1" pageWidth="850" pageHeight="1100" math="0" shadow="0">
      <root>
        <mxCell id="0" />
        <mxCell id="1" parent="0" />
        <mxCell id="92cX6R1gme9tXd_sNqT_-13" value="" style="rounded=0;whiteSpace=wrap;html=1;fontFamily=Helvetica;fontSize=11;fontColor=#292929;fillColor=none;dashed=1;dashPattern=8 8;spacing=0;spacingTop=-2;" vertex="1" parent="1">
          <mxGeometry x="10" y="472" width="275" height="128" as="geometry" />
        </mxCell>
        <mxCell id="92cX6R1gme9tXd_sNqT_-14" value="" style="sketch=0;outlineConnect=0;fontColor=#666666;gradientColor=none;fillColor=#19916E;strokeColor=none;dashed=0;verticalLabelPosition=bottom;verticalAlign=top;align=center;html=1;fontSize=12;fontStyle=0;aspect=fixed;pointerEvents=1;shape=mxgraph.aws4.mqtt_protocol;" vertex="1" parent="1">
          <mxGeometry x="175" y="489" width="78" height="78" as="geometry" />
        </mxCell>
        <mxCell id="92cX6R1gme9tXd_sNqT_-15" style="edgeStyle=orthogonalEdgeStyle;rounded=0;orthogonalLoop=1;jettySize=auto;html=1;strokeWidth=3;strokeColor=#636363;endArrow=openThin;endFill=0;startArrow=none;startFill=0;fontColor=#292929;" edge="1" parent="1" source="92cX6R1gme9tXd_sNqT_-18" target="92cX6R1gme9tXd_sNqT_-14">
          <mxGeometry relative="1" as="geometry" />
        </mxCell>
        <mxCell id="92cX6R1gme9tXd_sNqT_-16" value="Pub/Sub &lt;br&gt;messages" style="edgeLabel;html=1;align=center;verticalAlign=middle;resizable=0;points=[];fontSize=11;fontFamily=Helvetica;fontColor=#666666;" vertex="1" connectable="0" parent="92cX6R1gme9tXd_sNqT_-15">
          <mxGeometry x="0.493" y="1" relative="1" as="geometry">
            <mxPoint x="-19" y="20" as="offset" />
          </mxGeometry>
        </mxCell>
        <mxCell id="92cX6R1gme9tXd_sNqT_-17" value="Broker" style="edgeLabel;html=1;align=center;verticalAlign=middle;resizable=0;points=[];fontSize=11;fontFamily=Helvetica;fontColor=#666666;" vertex="1" connectable="0" parent="92cX6R1gme9tXd_sNqT_-15">
          <mxGeometry x="0.493" y="1" relative="1" as="geometry">
            <mxPoint x="58" y="50" as="offset" />
          </mxGeometry>
        </mxCell>
        <mxCell id="92cX6R1gme9tXd_sNqT_-18" value="Devices" style="sketch=0;outlineConnect=0;fontColor=#666666;gradientColor=none;fillColor=#19916E;strokeColor=none;dashed=0;verticalLabelPosition=bottom;verticalAlign=top;align=center;html=1;fontSize=12;fontStyle=0;aspect=fixed;pointerEvents=1;shape=mxgraph.aws4.sensor;labelBackgroundColor=none;shadow=0;" vertex="1" parent="1">
          <mxGeometry x="30" y="489" width="70" height="78" as="geometry" />
        </mxCell>
        <mxCell id="92cX6R1gme9tXd_sNqT_-19" style="edgeStyle=orthogonalEdgeStyle;shape=connector;rounded=0;orthogonalLoop=1;jettySize=auto;html=1;labelBackgroundColor=default;strokeColor=#636363;strokeWidth=3;align=center;verticalAlign=middle;fontFamily=Helvetica;fontSize=11;fontColor=#292929;endArrow=openThin;endFill=0;" edge="1" parent="1" source="92cX6R1gme9tXd_sNqT_-20" target="92cX6R1gme9tXd_sNqT_-25">
          <mxGeometry relative="1" as="geometry" />
        </mxCell>
        <mxCell id="92cX6R1gme9tXd_sNqT_-20" value="" style="sketch=0;outlineConnect=0;gradientColor=none;fillColor=#19916E;strokeColor=none;dashed=0;verticalLabelPosition=bottom;verticalAlign=top;align=center;html=1;aspect=fixed;pointerEvents=1;shape=mxgraph.aws4.desired_state;spacing=-1;spacingBottom=1;fontColor=#292929;" vertex="1" parent="1">
          <mxGeometry x="647" y="232" width="78" height="78" as="geometry" />
        </mxCell>
        <mxCell id="92cX6R1gme9tXd_sNqT_-21" style="edgeStyle=orthogonalEdgeStyle;shape=connector;rounded=0;orthogonalLoop=1;jettySize=auto;html=1;labelBackgroundColor=default;strokeColor=#636363;strokeWidth=3;align=center;verticalAlign=middle;fontFamily=Helvetica;fontSize=11;fontColor=#292929;endArrow=openThin;endFill=0;" edge="1" parent="1" source="92cX6R1gme9tXd_sNqT_-22" target="92cX6R1gme9tXd_sNqT_-37">
          <mxGeometry relative="1" as="geometry" />
        </mxCell>
        <mxCell id="92cX6R1gme9tXd_sNqT_-22" value="" style="sketch=0;outlineConnect=0;fontColor=#292929;gradientColor=none;fillColor=#19916E;strokeColor=none;dashed=0;verticalLabelPosition=bottom;verticalAlign=top;align=center;html=1;fontSize=12;fontStyle=0;aspect=fixed;pointerEvents=1;shape=mxgraph.aws4.reported_state;" vertex="1" parent="1">
          <mxGeometry x="175" y="232" width="78" height="78" as="geometry" />
        </mxCell>
        <mxCell id="92cX6R1gme9tXd_sNqT_-23" style="edgeStyle=orthogonalEdgeStyle;shape=connector;rounded=0;orthogonalLoop=1;jettySize=auto;html=1;labelBackgroundColor=default;strokeColor=#636363;strokeWidth=3;align=center;verticalAlign=middle;fontFamily=Helvetica;fontSize=11;fontColor=#292929;endArrow=openThin;endFill=0;" edge="1" parent="1" source="92cX6R1gme9tXd_sNqT_-25" target="92cX6R1gme9tXd_sNqT_-37">
          <mxGeometry relative="1" as="geometry">
            <mxPoint x="662.9999999999998" y="390.9999999999998" as="targetPoint" />
          </mxGeometry>
        </mxCell>
        <mxCell id="92cX6R1gme9tXd_sNqT_-24" value="POSTs serialized state" style="edgeLabel;html=1;align=center;verticalAlign=middle;resizable=0;points=[];fontSize=11;fontFamily=Helvetica;fontColor=#666666;labelBackgroundColor=none;" vertex="1" connectable="0" parent="92cX6R1gme9tXd_sNqT_-23">
          <mxGeometry x="0.1986" relative="1" as="geometry">
            <mxPoint x="19" y="-10" as="offset" />
          </mxGeometry>
        </mxCell>
        <mxCell id="92cX6R1gme9tXd_sNqT_-25" value="&lt;font color=&quot;#666666&quot;&gt;Lexical&lt;/font&gt;" style="sketch=0;outlineConnect=0;fontColor=#292929;gradientColor=none;fillColor=#636363;strokeColor=none;dashed=0;verticalLabelPosition=bottom;verticalAlign=top;align=center;html=1;fontSize=12;fontStyle=0;aspect=fixed;pointerEvents=1;shape=mxgraph.aws4.client;fontFamily=Helvetica;" vertex="1" parent="1">
          <mxGeometry x="647" y="354" width="78" height="76" as="geometry" />
        </mxCell>
        <mxCell id="92cX6R1gme9tXd_sNqT_-26" style="edgeStyle=orthogonalEdgeStyle;shape=connector;rounded=0;orthogonalLoop=1;jettySize=auto;html=1;labelBackgroundColor=default;strokeColor=#636363;strokeWidth=3;align=center;verticalAlign=middle;fontFamily=Helvetica;fontSize=11;fontColor=#292929;endArrow=openThin;startArrow=openThin;startFill=0;endFill=0;" edge="1" parent="1" source="92cX6R1gme9tXd_sNqT_-40" target="92cX6R1gme9tXd_sNqT_-14">
          <mxGeometry relative="1" as="geometry">
            <Array as="points">
              <mxPoint x="214" y="522" />
            </Array>
          </mxGeometry>
        </mxCell>
        <mxCell id="92cX6R1gme9tXd_sNqT_-27" style="edgeStyle=orthogonalEdgeStyle;shape=connector;rounded=0;orthogonalLoop=1;jettySize=auto;html=1;labelBackgroundColor=default;strokeColor=#636363;strokeWidth=3;align=center;verticalAlign=middle;fontFamily=Helvetica;fontSize=11;fontColor=#292929;endArrow=openThin;endFill=0;" edge="1" parent="1" source="92cX6R1gme9tXd_sNqT_-40" target="92cX6R1gme9tXd_sNqT_-22">
          <mxGeometry relative="1" as="geometry">
            <Array as="points">
              <mxPoint x="214" y="241" />
            </Array>
          </mxGeometry>
        </mxCell>
        <mxCell id="92cX6R1gme9tXd_sNqT_-28" style="edgeStyle=orthogonalEdgeStyle;shape=connector;rounded=0;orthogonalLoop=1;jettySize=auto;html=1;labelBackgroundColor=default;strokeColor=#636363;strokeWidth=3;align=center;verticalAlign=middle;fontFamily=Helvetica;fontSize=11;fontColor=#292929;endArrow=openThin;endFill=0;" edge="1" parent="1" source="92cX6R1gme9tXd_sNqT_-29" target="92cX6R1gme9tXd_sNqT_-20">
          <mxGeometry relative="1" as="geometry" />
        </mxCell>
        <mxCell id="92cX6R1gme9tXd_sNqT_-29" value="&lt;font color=&quot;#666666&quot;&gt;User&lt;/font&gt;" style="sketch=0;outlineConnect=0;fontColor=#292929;gradientColor=none;fillColor=#636363;strokeColor=none;dashed=0;verticalLabelPosition=bottom;verticalAlign=top;align=center;html=1;fontSize=12;fontStyle=0;aspect=fixed;pointerEvents=1;shape=mxgraph.aws4.user;fontFamily=Helvetica;" vertex="1" parent="1">
          <mxGeometry x="486" y="236" width="70" height="70" as="geometry" />
        </mxCell>
        <mxCell id="92cX6R1gme9tXd_sNqT_-30" value="&lt;font color=&quot;#666666&quot;&gt;Pub/Sub &lt;br&gt;messages&lt;/font&gt;" style="edgeLabel;html=1;align=left;verticalAlign=middle;resizable=0;points=[];fontSize=11;fontFamily=Helvetica;fontColor=#292929;" vertex="1" connectable="0" parent="1">
          <mxGeometry x="217" y="452.0004744905548" as="geometry" />
        </mxCell>
        <mxCell id="92cX6R1gme9tXd_sNqT_-31" style="edgeStyle=orthogonalEdgeStyle;shape=connector;rounded=0;orthogonalLoop=1;jettySize=auto;html=1;labelBackgroundColor=default;strokeColor=#636363;strokeWidth=3;align=center;verticalAlign=middle;fontFamily=Helvetica;fontSize=11;fontColor=#292929;endArrow=openThin;endFill=0;" edge="1" parent="1" source="92cX6R1gme9tXd_sNqT_-37" target="92cX6R1gme9tXd_sNqT_-40">
          <mxGeometry relative="1" as="geometry" />
        </mxCell>
        <mxCell id="92cX6R1gme9tXd_sNqT_-32" value="GETs the desired state&lt;br&gt;of the application" style="edgeLabel;html=1;align=center;verticalAlign=middle;resizable=0;points=[];fontSize=11;fontFamily=Helvetica;fontColor=#666666;" vertex="1" connectable="0" parent="92cX6R1gme9tXd_sNqT_-31">
          <mxGeometry x="0.1405" y="-2" relative="1" as="geometry">
            <mxPoint x="13" y="-18" as="offset" />
          </mxGeometry>
        </mxCell>
        <mxCell id="92cX6R1gme9tXd_sNqT_-33" value="Defines actions &lt;br&gt;to take to adapt &lt;br&gt;the application" style="edgeLabel;html=1;align=left;verticalAlign=middle;resizable=0;points=[];fontSize=11;fontFamily=Helvetica;fontColor=#666666;" vertex="1" connectable="0" parent="92cX6R1gme9tXd_sNqT_-31">
          <mxGeometry x="0.1405" y="-2" relative="1" as="geometry">
            <mxPoint x="128" y="80" as="offset" />
          </mxGeometry>
        </mxCell>
        <mxCell id="92cX6R1gme9tXd_sNqT_-34" value="Builds the orders from &lt;br&gt;the instructions set &lt;br&gt;by the user" style="edgeLabel;html=1;align=left;verticalAlign=middle;resizable=0;points=[];fontSize=11;fontFamily=Helvetica;fontColor=#666666;" vertex="1" connectable="0" parent="92cX6R1gme9tXd_sNqT_-31">
          <mxGeometry x="0.1405" y="-2" relative="1" as="geometry">
            <mxPoint x="163" y="160" as="offset" />
          </mxGeometry>
        </mxCell>
        <mxCell id="92cX6R1gme9tXd_sNqT_-35" value="Executes &lt;br&gt;the orders" style="edgeLabel;html=1;align=left;verticalAlign=middle;resizable=0;points=[];fontSize=11;fontFamily=Helvetica;fontColor=#666666;" vertex="1" connectable="0" parent="92cX6R1gme9tXd_sNqT_-31">
          <mxGeometry x="0.1405" y="-2" relative="1" as="geometry">
            <mxPoint x="8" y="130" as="offset" />
          </mxGeometry>
        </mxCell>
        <mxCell id="92cX6R1gme9tXd_sNqT_-36" style="edgeStyle=orthogonalEdgeStyle;shape=connector;curved=0;rounded=1;orthogonalLoop=1;jettySize=auto;html=1;labelBackgroundColor=default;strokeColor=#666666;strokeWidth=3;align=center;verticalAlign=middle;fontFamily=Helvetica;fontSize=12;fontColor=#666666;endArrow=openThin;endFill=0;fillColor=#FAE5C7;" edge="1" parent="1" source="92cX6R1gme9tXd_sNqT_-37" target="92cX6R1gme9tXd_sNqT_-48">
          <mxGeometry relative="1" as="geometry" />
        </mxCell>
        <mxCell id="92cX6R1gme9tXd_sNqT_-37" value="" style="sketch=0;outlineConnect=0;fontColor=#292929;gradientColor=none;fillColor=#636363;strokeColor=none;dashed=0;verticalLabelPosition=bottom;verticalAlign=top;align=center;html=1;fontSize=12;fontStyle=0;aspect=fixed;pointerEvents=1;shape=mxgraph.aws4.servers;fontFamily=Helvetica;" vertex="1" parent="1">
          <mxGeometry x="401" y="353" width="78" height="78" as="geometry" />
        </mxCell>
        <mxCell id="92cX6R1gme9tXd_sNqT_-38" value="&lt;span style=&quot;font-family: Helvetica; font-size: 11px; font-style: normal; font-variant-ligatures: normal; font-variant-caps: normal; font-weight: 400; letter-spacing: normal; orphans: 2; text-indent: 0px; text-transform: none; widows: 2; word-spacing: 0px; -webkit-text-stroke-width: 0px; text-decoration-thickness: initial; text-decoration-style: initial; text-decoration-color: initial; float: none; display: inline !important;&quot;&gt;Establish&lt;/span&gt;&lt;br style=&quot;border-color: var(--border-color); font-family: Helvetica; font-size: 11px; font-style: normal; font-variant-ligatures: normal; font-variant-caps: normal; font-weight: 400; letter-spacing: normal; orphans: 2; text-indent: 0px; text-transform: none; widows: 2; word-spacing: 0px; -webkit-text-stroke-width: 0px; text-decoration-thickness: initial; text-decoration-style: initial; text-decoration-color: initial;&quot;&gt;&lt;span style=&quot;font-family: Helvetica; font-size: 11px; font-style: normal; font-variant-ligatures: normal; font-variant-caps: normal; font-weight: 400; letter-spacing: normal; orphans: 2; text-indent: 0px; text-transform: none; widows: 2; word-spacing: 0px; -webkit-text-stroke-width: 0px; text-decoration-thickness: initial; text-decoration-style: initial; text-decoration-color: initial; float: none; display: inline !important;&quot;&gt;Current State&lt;/span&gt;" style="text;whiteSpace=wrap;html=1;fontSize=11;fontFamily=Helvetica;fontColor=#666666;align=right;" vertex="1" parent="1">
          <mxGeometry x="138" y="316" width="70" height="39" as="geometry" />
        </mxCell>
        <mxCell id="92cX6R1gme9tXd_sNqT_-39" value="" style="group;fillColor=none;fontColor=#666666;" vertex="1" connectable="0" parent="1">
          <mxGeometry x="125" y="353" width="128" height="78" as="geometry" />
        </mxCell>
        <mxCell id="92cX6R1gme9tXd_sNqT_-40" value="" style="sketch=0;outlineConnect=0;fontColor=#292929;gradientColor=none;fillColor=#636363;strokeColor=none;dashed=0;verticalLabelPosition=bottom;verticalAlign=top;align=center;html=1;fontSize=12;fontStyle=0;aspect=fixed;pointerEvents=1;shape=mxgraph.aws4.servers;fontFamily=Helvetica;" vertex="1" parent="92cX6R1gme9tXd_sNqT_-39">
          <mxGeometry x="50" width="78" height="78" as="geometry" />
        </mxCell>
        <mxCell id="92cX6R1gme9tXd_sNqT_-41" value="&lt;span style=&quot;font-family: Helvetica; font-size: 12px; font-style: normal; font-variant-ligatures: normal; font-variant-caps: normal; font-weight: 400; letter-spacing: normal; orphans: 2; text-indent: 0px; text-transform: none; widows: 2; word-spacing: 0px; -webkit-text-stroke-width: 0px; background-color: rgb(251, 251, 251); text-decoration-thickness: initial; text-decoration-style: initial; text-decoration-color: initial; float: none; display: inline !important;&quot;&gt;&lt;font color=&quot;#666666&quot;&gt;Looker&lt;br&gt;Service&lt;/font&gt;&lt;br&gt;&lt;/span&gt;" style="text;whiteSpace=wrap;html=1;fontSize=11;fontFamily=Helvetica;fontColor=#292929;align=right;" vertex="1" parent="92cX6R1gme9tXd_sNqT_-39">
          <mxGeometry y="19" width="50" height="40" as="geometry" />
        </mxCell>
        <mxCell id="92cX6R1gme9tXd_sNqT_-42" value="Provides&lt;br&gt;Desired State" style="edgeLabel;html=1;align=center;verticalAlign=middle;resizable=0;points=[];fontSize=11;fontFamily=Helvetica;fontColor=#666666;labelBackgroundColor=none;" vertex="1" connectable="0" parent="1">
          <mxGeometry x="595" y="250.00448275862072" as="geometry" />
        </mxCell>
        <mxCell id="92cX6R1gme9tXd_sNqT_-43" value="&lt;span style=&quot;font-family: Helvetica; font-size: 12px; font-style: normal; font-variant-ligatures: normal; font-variant-caps: normal; font-weight: 400; letter-spacing: normal; orphans: 2; text-indent: 0px; text-transform: none; widows: 2; word-spacing: 0px; -webkit-text-stroke-width: 0px; background-color: rgb(251, 251, 251); text-decoration-thickness: initial; text-decoration-style: initial; text-decoration-color: initial; float: none; display: inline !important;&quot;&gt;Desired State&lt;/span&gt;" style="text;whiteSpace=wrap;html=1;fontSize=11;fontFamily=Helvetica;fontColor=#666666;align=right;" vertex="1" parent="1">
          <mxGeometry x="629" y="306" width="50" height="40" as="geometry" />
        </mxCell>
        <mxCell id="92cX6R1gme9tXd_sNqT_-44" value="&lt;span style=&quot;font-family: Helvetica; font-size: 12px; font-style: normal; font-variant-ligatures: normal; font-variant-caps: normal; font-weight: 400; letter-spacing: normal; orphans: 2; text-align: center; text-indent: 0px; text-transform: none; widows: 2; word-spacing: 0px; -webkit-text-stroke-width: 0px; background-color: rgb(251, 251, 251); text-decoration-thickness: initial; text-decoration-style: initial; text-decoration-color: initial; float: none; display: inline !important;&quot;&gt;Observed&lt;br&gt;State&lt;/span&gt;" style="text;whiteSpace=wrap;html=1;fontSize=11;fontFamily=Helvetica;fontColor=#666666;" vertex="1" parent="1">
          <mxGeometry x="253" y="230" width="50" height="40" as="geometry" />
        </mxCell>
        <mxCell id="92cX6R1gme9tXd_sNqT_-45" value="&amp;nbsp; Smart Campus UIS&amp;nbsp;&amp;nbsp;" style="text;html=1;align=center;verticalAlign=top;resizable=0;points=[];autosize=1;strokeColor=none;fillColor=none;fontSize=11;fontFamily=Helvetica;fontColor=#666666;spacing=0;labelBackgroundColor=default;" vertex="1" parent="1">
          <mxGeometry x="82.5" y="589" width="130" height="20" as="geometry" />
        </mxCell>
        <mxCell id="92cX6R1gme9tXd_sNqT_-46" value="PUTs the updated state&lt;br style=&quot;border-color: var(--border-color);&quot;&gt;back to bran" style="edgeLabel;html=1;align=center;verticalAlign=middle;resizable=0;points=[];fontSize=11;fontFamily=Helvetica;fontColor=#666666;" vertex="1" connectable="0" parent="1">
          <mxGeometry x="434.99757575757553" y="250" as="geometry" />
        </mxCell>
        <mxCell id="92cX6R1gme9tXd_sNqT_-47" style="edgeStyle=orthogonalEdgeStyle;shape=connector;curved=0;rounded=1;orthogonalLoop=1;jettySize=auto;html=1;labelBackgroundColor=default;strokeColor=#666666;strokeWidth=3;align=center;verticalAlign=middle;fontFamily=Helvetica;fontSize=12;fontColor=#666666;endArrow=openThin;endFill=0;fillColor=#FAE5C7;" edge="1" parent="1" source="92cX6R1gme9tXd_sNqT_-48" target="92cX6R1gme9tXd_sNqT_-13">
          <mxGeometry relative="1" as="geometry" />
        </mxCell>
        <mxCell id="92cX6R1gme9tXd_sNqT_-48" value="&lt;font color=&quot;#666666&quot;&gt;DoThing&lt;/font&gt;" style="sketch=0;outlineConnect=0;fontColor=#292929;gradientColor=none;fillColor=#636363;strokeColor=none;dashed=0;verticalLabelPosition=bottom;verticalAlign=top;align=center;html=1;fontSize=12;fontStyle=0;aspect=fixed;pointerEvents=1;shape=mxgraph.aws4.servers;fontFamily=Helvetica;" vertex="1" parent="1">
          <mxGeometry x="401" y="497" width="78" height="78" as="geometry" />
        </mxCell>
        <mxCell id="92cX6R1gme9tXd_sNqT_-49" value="&lt;div style=&quot;text-align: left;&quot;&gt;&lt;span style=&quot;color: rgb(102, 102, 102); font-size: 12px;&quot;&gt;Bran Service&lt;/span&gt;&lt;/div&gt;" style="text;whiteSpace=wrap;html=1;fontSize=11;fontFamily=Helvetica;fontColor=#292929;align=right;" vertex="1" parent="1">
          <mxGeometry x="486" y="402" width="50" height="40" as="geometry" />
        </mxCell>
      </root>
    </mxGraphModel>
  </diagram>
</mxfile>
